<?xml version="1.0" standalone="no"?>
<!DOCTYPE svg PUBLIC "-//W3C//DTD SVG 20010904//EN"
 "http://www.w3.org/TR/2001/REC-SVG-20010904/DTD/svg10.dtd">
<svg version="1.0" xmlns="http://www.w3.org/2000/svg"
 width="577.000000pt" height="577.000000pt" viewBox="0 0 577.000000 577.000000"
 preserveAspectRatio="xMidYMid meet">
<metadata>
Created by potrace 1.14, written by Peter Selinger 2001-2017
</metadata>
<g transform="translate(0.000000,577.000000) scale(0.100000,-0.100000)"
fill="#000000" stroke="none">
<path d="M3108 4733 c-21 -8 -38 -19 -38 -24 0 -12 53 -12 66 0 9 10 64 23 64
15 0 -2 -9 -13 -19 -23 -11 -11 -18 -28 -16 -38 2 -10 4 -21 4 -25 1 -5 6 -8
12 -8 6 0 9 9 6 20 -7 25 26 50 66 50 54 0 93 -27 115 -80 l21 -49 -30 -26
c-29 -24 -32 -24 -66 -10 -20 9 -56 28 -79 44 -24 15 -70 34 -104 41 -46 10
-60 17 -58 29 5 27 -48 25 -108 -4 -61 -30 -75 -54 -16 -29 20 9 51 19 67 21
29 4 29 3 11 -11 -11 -9 -18 -16 -15 -17 2 0 22 -3 44 -5 22 -3 46 -5 53 -6 6
-1 12 -5 12 -8 0 -9 54 -32 66 -28 15 4 74 -26 74 -38 0 -15 41 -32 65 -26 11
2 44 5 73 5 49 1 64 8 42 22 -5 3 -10 20 -10 36 0 89 -74 163 -170 168 -13 1
-13 2 0 11 26 17 -91 11 -132 -7z"/>
<path d="M3460 4580 c0 -6 11 -23 25 -39 24 -26 31 -28 82 -25 30 2 61 8 67
13 24 18 83 -9 111 -53 30 -46 34 -104 11 -180 -12 -38 -11 -44 0 -39 8 3 14
11 14 19 0 8 4 14 8 14 10 0 10 2 16 85 4 54 2 65 -27 113 -33 54 -53 66 -112
65 -45 -1 -103 -10 -115 -18 -6 -4 -23 7 -39 24 -30 32 -41 38 -41 21z"/>
<path d="M2808 4546 c-31 -13 -72 -33 -90 -45 l-33 -22 30 4 c28 4 90 26 126
47 10 5 25 4 40 -4 13 -6 40 -13 59 -14 19 -1 46 -11 60 -21 14 -10 35 -21 48
-25 12 -4 22 -11 22 -15 0 -4 7 -8 15 -8 22 0 18 15 -7 28 -12 7 -35 24 -52
39 -28 27 -69 44 -131 54 -19 3 -51 -4 -87 -18z"/>
<path d="M3017 4540 c3 -11 9 -18 13 -15 5 3 15 -3 22 -14 20 -29 83 -49 168
-55 97 -7 118 -10 126 -19 4 -3 -22 -6 -57 -5 -35 1 -84 -2 -109 -6 -25 -3
-83 -8 -129 -10 -54 -3 -88 -9 -98 -18 -12 -13 0 -14 89 -12 57 2 117 6 133 9
52 10 118 12 152 4 18 -4 36 -3 39 2 3 5 14 9 24 9 10 0 20 4 22 9 5 16 55 20
95 9 38 -10 83 -43 83 -60 0 -5 12 -25 26 -43 19 -25 24 -40 19 -57 -4 -13 -4
-20 0 -16 4 3 22 -23 41 -58 28 -52 34 -75 34 -124 0 -33 4 -60 10 -60 5 0 9
5 7 11 -1 6 3 13 9 16 7 2 12 -7 12 -20 0 -19 -5 -23 -19 -20 -15 4 -19 0 -19
-17 0 -22 -1 -23 -20 -5 -15 14 -20 31 -20 70 0 69 -10 75 -32 20 -13 -34 -15
-51 -8 -71 10 -25 9 -26 -17 -19 -15 3 -30 10 -33 14 -5 8 -36 22 -57 27 -25
5 -12 -16 19 -32 18 -9 38 -23 46 -30 7 -8 38 -21 68 -30 66 -19 115 -59 162
-134 20 -30 38 -57 41 -60 6 -5 15 -23 46 -93 16 -37 28 -82 27 -102 -8 -132
-12 -174 -17 -195 -15 -53 -8 -179 13 -232 11 -26 10 -26 -16 -17 -35 11 -235
26 -272 19 -3 0 -53 -3 -112 -5 -71 -3 -109 -1 -114 6 -4 8 7 10 35 7 22 -2
41 1 41 6 0 5 3 6 6 3 4 -3 16 -2 27 4 15 9 18 8 12 -2 -6 -9 -4 -10 6 -3 15
10 169 14 169 4 0 -3 14 -6 30 -6 50 -2 31 22 -25 32 -37 7 -193 6 -204 -1 -6
-3 -11 -2 -11 4 0 14 -30 19 -60 10 -14 -4 -41 -10 -60 -12 -19 -3 -44 -8 -55
-13 -17 -7 -18 -6 -5 8 8 9 18 14 22 12 4 -2 9 0 13 6 4 6 11 8 16 5 5 -4 9
-2 9 2 0 5 8 9 18 10 9 1 31 3 47 5 17 3 36 0 43 -5 6 -5 12 -7 12 -4 0 4 10
3 22 -2 12 -4 47 -2 81 5 33 7 69 11 79 9 38 -8 63 -18 79 -31 9 -8 27 -17 40
-19 20 -4 16 2 -21 35 -48 41 -76 51 -151 54 -36 2 -46 -1 -45 -13 1 -12 -6
-15 -24 -12 -14 2 -59 4 -100 4 -68 2 -82 -2 -151 -36 -71 -35 -177 -116 -207
-159 -19 -26 -4 -44 19 -21 67 66 95 77 209 80 58 2 148 6 200 9 152 9 223 6
370 -19 56 -10 74 -50 76 -175 3 -158 -12 -182 -122 -197 -146 -19 -197 -21
-324 -11 -41 3 -127 7 -190 9 -123 3 -143 10 -215 75 -7 6 -18 12 -24 12 -18
0 -12 -25 10 -40 37 -26 59 -47 59 -56 0 -18 143 -98 215 -120 58 -18 86 -20
116 -10 36 13 85 14 96 3 3 -4 1 -7 -6 -7 -7 0 -10 -4 -7 -9 6 -9 50 -8 111 3
39 7 125 70 113 82 -7 7 -50 -14 -60 -29 -8 -12 -30 -18 -78 -19 -43 -1 -120
12 -120 21 0 3 33 7 73 7 69 1 168 30 140 41 -28 10 -11 20 35 20 26 0 70 3
97 7 28 4 46 4 40 -1 -5 -4 -11 -13 -12 -20 -1 -6 -5 -26 -9 -45 -9 -48 -9
-127 0 -173 8 -42 15 -118 17 -197 1 -51 -38 -148 -84 -210 -14 -18 -28 -43
-31 -55 -4 -12 -32 -45 -62 -72 -51 -47 -74 -56 -120 -50 -4 0 -10 -3 -13 -8
-3 -5 -28 -23 -54 -40 -46 -30 -51 -31 -137 -27 -55 2 -90 0 -90 -6 0 -6 5
-10 11 -10 5 0 7 -5 3 -11 -3 -6 -18 -8 -33 -5 -14 4 -46 9 -70 13 -34 4 -42
2 -39 -8 3 -8 19 -15 37 -16 18 -1 44 -4 58 -8 14 -3 31 -1 40 7 9 7 45 14 82
16 36 2 78 4 94 4 15 1 27 5 27 10 0 4 7 8 15 8 8 0 15 5 15 10 0 6 11 8 25 4
14 -3 25 -2 25 4 0 5 7 12 15 16 13 5 13 2 -1 -19 -10 -15 -14 -37 -11 -57 12
-83 37 -86 37 -5 0 60 9 77 38 80 11 0 20 6 19 11 -1 6 8 15 21 21 12 5 22 15
22 22 0 7 4 13 8 13 9 0 118 152 137 190 20 40 28 13 11 -37 -4 -13 -12 -23
-17 -23 -5 0 -9 -7 -9 -15 0 -8 -4 -15 -10 -15 -5 0 -19 -21 -31 -47 -12 -25
-27 -53 -35 -61 -8 -7 -12 -18 -9 -23 4 -5 2 -9 -2 -9 -5 0 -9 -10 -10 -22 -2
-48 -12 -104 -24 -135 -11 -26 -11 -36 1 -57 11 -22 21 -26 55 -26 47 0 105
17 105 31 0 5 7 17 15 26 8 10 14 20 13 23 -1 3 4 15 10 27 16 30 25 90 15
105 -4 7 -9 21 -10 31 -2 10 -12 35 -23 57 -24 47 -26 80 -5 80 8 0 16 -4 16
-10 2 -13 4 -22 12 -40 5 -12 13 -49 16 -82 1 -5 5 -8 10 -8 16 0 4 120 -15
141 -9 10 -13 19 -9 19 4 0 -2 8 -13 19 -19 16 -21 27 -18 80 2 34 7 65 10 68
3 4 6 -1 6 -10 0 -23 1 -29 11 -53 4 -12 11 -42 14 -65 4 -24 10 -46 15 -49 4
-3 11 -21 15 -40 4 -19 13 -45 21 -57 19 -29 18 -83 -2 -111 -8 -12 -12 -27
-9 -33 4 -5 -1 -19 -10 -29 -12 -13 -13 -18 -3 -16 28 5 84 34 98 50 17 22 23
108 8 145 -6 14 -11 35 -12 46 0 11 -9 21 -18 23 -15 3 -15 -1 -1 -45 17 -56
19 -119 4 -137 -6 -7 -9 -15 -6 -18 3 -3 -6 -10 -20 -16 -27 -12 -33 -2 -12
20 13 14 16 125 4 146 -5 6 -6 12 -2 12 3 0 -2 17 -11 38 -44 104 -69 234 -48
255 10 10 85 -76 113 -130 10 -21 31 -51 46 -67 16 -18 30 -45 33 -69 6 -46
22 -30 17 19 -2 27 -52 115 -76 134 -4 3 -9 14 -13 25 -7 25 -55 79 -84 94
-48 26 -14 74 46 66 41 -5 72 4 72 21 0 8 5 14 10 14 7 0 7 6 0 20 -7 13 -7
27 -2 38 5 9 13 43 16 75 4 31 12 57 17 57 5 0 8 -16 6 -35 -4 -29 -2 -33 10
-24 7 7 12 17 12 23 -1 6 0 18 4 26 29 75 47 210 28 210 -5 0 -8 -14 -7 -31 1
-16 -1 -32 -6 -35 -4 -3 -8 -16 -8 -29 0 -13 -4 -26 -9 -29 -4 -3 -11 -20 -15
-38 -5 -25 -9 -30 -16 -18 -10 17 -19 11 -25 -18 -2 -11 -8 -30 -14 -41 -6
-11 -11 -24 -10 -28 8 -49 -24 -103 -62 -103 -19 0 -18 2 5 23 14 12 26 35 28
52 1 17 7 37 14 45 6 8 14 32 17 52 4 29 3 36 -9 31 -8 -3 -14 -8 -15 -12 -5
-45 -42 -130 -65 -152 -40 -37 -46 -11 -14 56 16 33 29 65 30 72 0 6 18 26 40
43 22 17 40 39 40 49 0 9 4 21 10 27 8 8 11 35 10 101 0 25 -43 63 -71 63 -20
0 -51 -38 -42 -53 3 -5 9 -4 13 4 5 7 17 14 27 15 33 5 47 -12 46 -55 -2 -41
-29 -89 -88 -156 -43 -49 -67 -113 -71 -195 -2 -41 -7 -93 -12 -115 -10 -40
-10 -40 -11 -7 -1 40 -2 42 -12 69 -5 13 -4 25 1 28 6 4 7 13 1 23 -39 74 -32
311 12 360 22 25 30 74 31 192 1 96 -1 109 -25 150 -32 56 -52 157 -46 230 3
30 6 55 7 55 4 0 10 46 16 115 7 89 9 109 15 115 3 3 6 -1 7 -7 0 -7 4 -35 7
-63 11 -82 11 -150 0 -148 -13 2 -17 -20 -18 -102 -2 -82 17 -171 43 -210 3
-5 8 -28 9 -49 2 -22 5 -49 8 -60 11 -45 -5 -158 -31 -220 -9 -21 -19 -50 -22
-65 -11 -44 -7 -202 5 -214 8 -8 11 -7 12 4 2 56 10 107 21 138 6 20 11 48 9
64 -1 15 3 44 10 65 7 20 13 46 13 57 1 11 4 25 7 30 12 19 7 179 -6 200 -6
11 -11 28 -9 38 1 10 -2 32 -7 50 -5 18 -11 55 -14 82 -2 28 -7 61 -10 75 -3
14 -8 38 -11 54 -2 16 -7 33 -10 37 -2 4 0 10 5 14 11 6 33 -29 24 -39 -3 -3
-1 -6 5 -6 6 0 19 -14 28 -32 9 -17 25 -41 36 -52 24 -26 72 -105 75 -125 2
-17 -15 -53 -30 -63 -6 -3 -23 0 -38 8 -18 9 -30 10 -34 4 -3 -6 -1 -10 6 -10
7 0 9 -3 6 -7 -11 -10 27 -32 49 -28 10 2 24 4 31 4 15 1 36 66 35 106 -1 16
-10 48 -21 69 -11 21 -17 44 -14 50 9 14 4 77 -7 91 -5 6 -11 22 -13 35 -6 36
-19 63 -36 77 -12 9 -12 12 -3 13 19 0 62 -46 63 -67 0 -10 3 -27 5 -38 3 -11
6 -26 6 -32 1 -7 5 -13 10 -13 5 0 7 -3 5 -7 -2 -5 2 -24 9 -43 l14 -35 -5 50
c-7 76 -24 157 -35 171 -8 8 -7 13 1 16 20 7 0 46 -26 52 -13 3 -40 4 -59 0
-32 -5 -37 -2 -48 22 -11 24 -10 28 7 38 33 19 73 64 101 113 16 27 38 62 50
78 26 35 39 101 23 111 -7 4 -10 1 -7 -7 7 -18 -15 -60 -47 -95 -14 -15 -28
-38 -31 -51 -4 -13 -10 -23 -15 -23 -5 0 -9 -5 -9 -10 0 -11 -5 -18 -50 -69
-42 -47 -52 -41 -49 32 2 34 6 67 9 72 4 6 19 45 35 88 34 96 39 185 13 228
-21 35 -8 38 26 6 18 -17 26 -35 27 -63 1 -44 -8 -101 -22 -126 -6 -10 -5 -19
1 -23 16 -10 38 55 46 135 6 58 -10 89 -61 115 -22 11 -42 22 -45 25 -3 3 -12
6 -20 8 -10 3 -8 -4 8 -20 12 -14 20 -27 16 -30 -3 -4 1 -20 10 -36 19 -36 18
-99 -1 -128 -7 -12 -16 -32 -18 -45 -3 -13 -9 -25 -15 -27 -5 -2 -10 -10 -10
-19 0 -8 -9 -26 -20 -40 -19 -24 -19 -50 0 -38 5 3 5 -8 0 -25 -10 -36 -10
-34 -10 -62 0 -48 -11 -6 -15 59 -4 56 -1 74 11 84 29 24 52 87 49 134 -2 43
-14 74 -16 44 -7 -78 -27 -141 -42 -136 -22 7 -19 35 10 94 42 89 35 168 -23
239 -32 40 -35 41 -91 40 -51 -1 -59 -4 -72 -28 -13 -23 -14 -32 -3 -60 8 -18
16 -49 18 -68 10 -81 16 -100 32 -116 9 -9 17 -23 18 -30 2 -15 43 -76 59 -86
5 -4 6 -8 1 -8 -6 0 -3 -6 6 -12 14 -11 34 -78 23 -78 -4 0 -108 149 -124 177
-7 14 -21 27 -30 30 -23 6 -47 43 -28 43 25 0 9 154 -22 205 -3 6 -7 19 -8 29
-4 26 -42 86 -54 86 -6 0 -8 4 -5 9 4 5 0 12 -6 14 -10 4 -10 6 0 6 14 1 -30
68 -89 134 -35 39 -39 41 -100 43 -248 10 -276 13 -334 35 -33 12 -71 30 -84
40 -31 24 -40 24 -34 -1z m863 -396 c22 -9 45 -25 50 -35 13 -22 13 -39 1 -20
-6 9 -28 15 -53 16 -24 1 -52 7 -63 13 -20 11 -20 11 0 26 25 19 17 19 65 0z
m43 -127 c-2 -23 -9 -44 -14 -45 -5 -2 -7 -8 -3 -13 3 -5 1 -9 -4 -9 -9 0 -32
66 -32 93 0 9 8 23 17 32 16 16 17 16 29 0 7 -9 10 -33 7 -58z m-88 53 c3 -5
1 -10 -4 -10 -6 0 -11 5 -11 10 0 6 2 10 4 10 3 0 8 -4 11 -10z m15 -97 c0 -7
4 -13 9 -13 5 0 13 -9 16 -20 15 -47 74 -2 76 57 0 23 2 25 8 9 4 -11 7 -26 6
-35 -2 -19 -44 -104 -56 -111 -10 -7 -6 -43 6 -53 6 -5 4 -7 -5 -5 -8 3 -21
27 -29 54 -9 27 -19 51 -23 54 -11 8 -38 77 -38 97 0 15 2 15 15 -3 8 -10 15
-25 15 -31z m216 -578 c19 -20 58 -122 56 -145 0 -3 4 -13 9 -22 5 -10 6 -18
1 -18 -17 0 -49 45 -67 93 -10 26 -22 47 -27 47 -5 0 -7 4 -3 9 3 5 1 12 -4
15 -9 6 -3 46 7 46 2 0 15 -11 28 -25z m-711 -285 c-3 -5 -12 -7 -20 -3 -21 7
-19 13 6 13 11 0 18 -4 14 -10z m297 -451 c54 -1 86 -5 82 -11 -3 -5 -12 -7
-20 -4 -7 3 -16 1 -20 -5 -3 -6 -12 -8 -20 -5 -7 3 -16 1 -19 -4 -3 -5 -15 -7
-28 -4 -12 2 -40 6 -62 9 -22 2 -53 8 -70 12 -16 5 -40 8 -52 7 -12 -1 -20 2
-18 6 3 5 35 6 72 4 38 -3 107 -5 155 -5z m-282 -46 c66 -9 105 -11 124 -4 24
9 46 4 46 -10 0 -5 -11 -9 -24 -9 -14 0 -27 -4 -30 -9 -8 -12 -63 -4 -111 15
-22 9 -40 15 -40 13 0 -2 -9 3 -20 10 -18 11 -18 11 5 5 14 -4 36 -9 50 -11z
m541 -661 c-8 -14 -4 -31 16 -67 32 -61 43 -99 33 -114 -4 -8 -10 0 -14 20 -7
36 -32 69 -52 69 -6 0 -17 -12 -24 -27 -24 -58 -44 -93 -52 -93 -5 0 -4 9 2
20 6 11 8 20 5 20 -8 0 23 69 38 85 8 8 18 31 22 52 4 21 12 41 18 45 18 11
19 10 8 -10z m-5 -141 c-4 -5 -1 -11 5 -13 18 -6 16 -97 -1 -108 -12 -8 -12
-10 3 -16 28 -10 20 -24 -27 -45 -46 -20 -70 -18 -80 7 -7 19 22 31 67 27 l38
-3 -22 29 c-21 29 -21 58 0 129 1 1 6 2 12 2 5 0 8 -4 5 -9z m-71 -101 c-3 -5
-11 -10 -16 -10 -6 0 -7 5 -4 10 3 6 11 10 16 10 6 0 7 -4 4 -10z"/>
<path d="M2802 4479 c-28 -10 -77 -21 -109 -24 -13 -1 -26 -5 -30 -8 -10 -11
-45 -8 -38 3 12 20 -149 20 -201 0 -41 -15 -118 -70 -109 -78 2 -2 -5 -22 -16
-43 -11 -22 -16 -39 -12 -39 4 0 -8 -15 -26 -34 -22 -23 -32 -41 -29 -57 3
-23 4 -23 17 7 8 16 32 43 53 58 22 16 37 34 35 40 -9 23 19 47 48 42 16 -3
37 1 49 10 20 15 20 15 -10 11 -38 -6 -77 19 -54 33 8 5 20 10 27 10 6 0 13 5
15 12 5 14 187 15 197 1 5 -7 46 -10 54 -3 1 1 13 3 27 4 14 2 35 6 47 10 12
4 30 9 40 11 10 2 27 7 38 11 17 7 18 6 7 -8 -10 -13 -10 -17 0 -21 36 -13
148 11 148 33 0 6 -12 8 -27 5 -78 -15 -93 -16 -93 -5 0 6 4 9 9 5 5 -3 12 -1
16 5 3 5 0 10 -7 11 -7 0 -20 2 -28 3 -8 2 -26 -1 -38 -5z"/>
<path d="M2652 4400 c-46 -9 -97 -24 -115 -33 -37 -18 -70 -31 -77 -29 -14 2
-105 -55 -103 -65 1 -5 -8 -15 -20 -22 -12 -6 -33 -28 -47 -48 -39 -57 -71
-82 -125 -98 -46 -13 -86 -13 -122 0 -8 3 -13 -5 -13 -21 0 -23 3 -24 45 -21
27 2 45 -1 45 -7 0 -6 4 -5 9 3 5 7 13 11 18 8 17 -11 127 49 151 81 12 17 22
35 22 40 0 5 14 21 30 35 17 15 30 25 30 21 0 -3 19 8 43 25 23 17 67 37 97
45 30 7 81 23 113 34 31 11 57 18 57 15 0 -3 6 0 14 6 20 17 78 23 73 8 -2 -7
-12 -13 -23 -15 -10 -2 -26 -6 -34 -9 -25 -9 21 -21 50 -13 17 5 39 0 70 -15
25 -12 57 -25 73 -29 15 -4 36 -15 47 -26 11 -11 21 -18 21 -15 1 3 2 11 3 18
1 7 13 11 34 9 54 -5 34 21 -32 42 -23 8 -15 18 18 21 17 2 23 -1 20 -10 -4
-9 9 -11 53 -8 32 3 63 8 68 13 17 13 47 3 114 -37 70 -41 96 -72 88 -104 -6
-21 31 -69 53 -69 5 0 10 -5 10 -11 0 -6 -5 -7 -12 -2 -7 4 -18 8 -24 9 -6 1
-22 5 -34 9 -16 5 -21 4 -18 -6 2 -8 31 -23 64 -33 32 -10 64 -25 69 -33 14
-18 69 -27 93 -14 10 5 35 25 55 44 42 38 44 61 11 126 -9 18 -13 35 -10 38 3
4 6 2 6 -4 0 -6 6 -13 14 -16 11 -4 11 1 -2 26 -8 18 -19 34 -22 37 -4 3 -15
21 -25 40 -21 41 -54 72 -67 64 -6 -4 -5 -10 3 -16 10 -6 4 -7 -18 -4 -36 5
-63 -15 -89 -65 -13 -26 -19 -30 -42 -24 -15 3 -28 10 -30 15 -2 4 -14 21 -27
36 -22 26 -31 29 -92 30 -38 1 -77 -3 -88 -9 -29 -16 -65 -19 -65 -7 0 8 -20
10 -64 5 -54 -5 -72 -2 -106 15 -23 12 -47 19 -53 16 -9 -3 -9 -5 1 -5 6 -1
12 -7 12 -15 0 -8 9 -18 21 -21 11 -4 18 -9 15 -12 -8 -9 -74 39 -79 57 -6 22
-55 22 -155 0z m938 -148 c0 -3 -7 2 -16 9 -13 10 -11 2 6 -31 34 -67 41 -97
24 -111 -8 -6 -14 -9 -14 -6 0 3 -16 -3 -36 -12 -34 -17 -39 -17 -80 -2 -24 9
-47 20 -51 24 -4 5 0 5 10 1 32 -12 17 14 -18 30 -28 13 -35 23 -35 44 0 16
-5 33 -11 39 -7 7 -3 15 15 26 27 18 30 16 40 -27 12 -50 48 -116 63 -116 12
0 13 7 8 28 -4 15 -8 32 -9 38 -1 7 -7 18 -13 25 -6 8 -14 31 -18 52 -6 30 -4
37 9 37 9 0 16 -6 17 -12 2 -32 9 -52 21 -59 7 -5 10 -9 5 -9 -4 0 -1 -10 8
-23 8 -12 16 -34 18 -47 5 -29 20 -36 36 -16 10 12 8 23 -12 58 -48 88 -62
108 -79 114 -10 3 -18 14 -18 24 0 37 34 27 83 -24 26 -28 47 -52 47 -54z"/>
<path d="M3363 4373 c-5 -16 -7 -37 -5 -47 3 -16 7 -14 18 13 8 18 14 40 14
47 0 24 -18 15 -27 -13z"/>
<path d="M1900 4382 c-26 -9 -40 -30 -38 -56 3 -30 18 -24 18 8 0 27 33 41 50
21 6 -7 19 -15 29 -18 14 -3 17 0 14 14 -6 20 -50 39 -73 31z"/>
<path d="M2068 4333 c-10 -3 -18 -9 -18 -14 0 -5 -5 -9 -10 -9 -6 0 -22 -11
-36 -25 -19 -19 -21 -25 -9 -25 9 0 23 6 30 13 34 29 45 37 45 31 0 -3 6 -1
14 5 21 17 71 17 98 -1 31 -20 54 -12 31 10 -16 16 -103 25 -145 15z"/>
<path d="M2628 4295 c-4 -5 -73 -12 -129 -14 -15 -1 -29 -7 -32 -13 -3 -10 14
-12 72 -10 42 1 84 2 94 3 9 0 17 5 17 10 0 6 4 8 9 5 11 -7 41 3 41 13 0 8
-65 13 -72 6z"/>
<path d="M2636 4231 c-73 -39 -176 -131 -176 -158 0 -7 -26 -30 -58 -51 -32
-20 -64 -43 -72 -50 -8 -7 -24 -19 -34 -26 -15 -10 -16 -15 -6 -21 8 -5 11 -4
7 2 -4 6 2 13 13 16 31 8 31 -5 2 -54 -15 -24 -28 -50 -30 -57 -4 -22 18 -12
30 13 6 14 15 25 20 25 5 0 7 4 3 9 -3 5 -1 13 5 16 6 4 10 21 8 38 -2 25 2
34 20 42 12 5 22 13 22 17 0 5 7 8 16 8 9 0 25 10 36 22 l19 22 -5 -28 c-3
-16 -13 -38 -23 -49 -10 -12 -21 -26 -26 -32 -4 -5 -16 -21 -27 -34 -12 -14
-23 -36 -27 -50 -3 -14 -15 -34 -26 -46 -30 -32 -51 -66 -54 -89 -1 -12 -5
-33 -9 -48 -7 -29 12 -41 22 -14 3 7 23 19 45 26 21 7 39 17 39 21 0 12 -18
20 -24 11 -3 -5 -15 -8 -28 -6 -13 1 -27 3 -31 3 -5 1 5 13 22 27 17 14 47 49
67 77 19 29 53 76 75 106 33 47 39 62 39 106 0 37 6 60 20 77 10 14 16 29 12
33 -4 5 -1 5 6 1 8 -5 20 0 30 11 9 11 24 22 32 26 8 4 33 18 55 32 22 13 48
24 58 25 24 0 22 -25 -3 -27 -11 -1 -27 -8 -35 -15 -7 -7 -30 -24 -49 -38 -43
-31 -74 -90 -79 -153 -5 -52 10 -70 37 -48 8 7 24 14 36 16 12 2 33 16 47 30
14 14 37 26 52 26 14 1 78 2 141 4 63 1 135 5 160 9 59 8 84 10 149 8 40 -2
52 -5 48 -16 -4 -10 6 -13 46 -10 71 5 90 9 94 21 2 5 -11 8 -29 7 -18 -1 -33
-3 -33 -4 0 -1 -14 -3 -31 -4 -21 -2 -30 2 -27 9 2 7 -4 14 -14 17 -22 6 -169
2 -288 -8 -98 -8 -135 -8 -177 -1 -15 2 -40 -2 -54 -9 -14 -8 -32 -14 -40 -14
-7 0 -19 -8 -26 -17 -17 -23 -48 -29 -48 -8 0 8 5 16 10 16 19 3 25 5 48 17
12 7 26 11 30 8 5 -3 16 4 26 15 14 17 28 20 84 19 107 -1 112 0 134 11 20 11
59 11 315 4 50 -1 74 2 77 11 3 9 -12 12 -57 12 -91 -1 -147 5 -147 14 0 15
-54 31 -115 35 -137 7 -197 8 -206 2 -15 -9 100 -27 163 -25 35 0 60 -4 62
-10 3 -7 -11 -11 -40 -9 -30 1 -48 -3 -53 -13 -7 -12 -12 -12 -32 -1 -13 7
-35 14 -49 14 -14 0 -29 3 -35 7 -17 10 -118 0 -142 -15 -19 -12 -24 9 -5 26
25 22 92 48 105 40 6 -3 7 -1 3 5 -5 8 1 12 16 13 13 1 43 2 68 2 25 1 46 6
48 11 3 11 -9 14 -96 20 -34 3 -71 10 -81 16 -15 8 -32 3 -75 -19z m398 -87
c9 -3 16 -10 16 -14 0 -12 -33 -5 -38 8 -4 14 0 15 22 6z m-371 -39 c9 2 17
-3 17 -11 0 -15 -32 -38 -66 -48 -17 -5 -20 -2 -20 21 1 31 25 56 41 43 5 -4
18 -6 28 -5z"/>
<path d="M2043 4243 c-51 -10 -117 -128 -95 -170 5 -10 9 -61 10 -113 0 -89
-9 -126 -28 -115 -5 3 -11 1 -15 -5 -4 -6 -12 -7 -18 -4 -8 5 -9 4 -2 -4 6 -5
27 -12 48 -15 21 -3 41 -8 44 -11 3 -3 15 -1 25 5 15 8 17 14 9 22 -6 6 -11
18 -11 26 0 9 -7 29 -15 45 -16 30 -18 213 -3 222 5 3 6 9 3 14 -11 18 28 18
74 0 35 -13 51 -16 59 -8 6 6 26 13 44 15 49 5 53 17 13 44 -19 13 -35 27 -35
30 0 6 -23 13 -70 23 -8 2 -25 1 -37 -1z m56 -34 c17 -6 31 -15 31 -20 0 -5 8
-9 17 -9 13 0 14 -3 6 -11 -7 -7 -22 -9 -40 -4 -15 5 -30 9 -33 10 -57 13 -61
16 -50 30 15 18 27 19 69 4z"/>
<path d="M2473 4223 c-21 -6 -51 -14 -66 -17 -16 -4 -42 -21 -58 -39 -16 -18
-37 -40 -46 -49 -9 -10 -14 -20 -12 -23 9 -8 69 35 69 50 0 8 7 15 15 15 8 0
15 4 15 9 0 5 10 9 23 9 29 2 50 6 62 14 6 3 27 9 48 13 20 4 40 11 43 16 3 5
10 7 15 4 5 -4 9 -1 9 5 0 13 -65 9 -117 -7z"/>
<path d="M2990 4231 c-12 -9 -11 -11 6 -11 12 0 37 -6 55 -14 19 -7 43 -17 54
-21 34 -14 137 -3 143 15 2 6 9 7 15 4 7 -4 7 -1 -1 7 -7 8 -38 15 -75 17 -34
1 -89 5 -122 8 -33 2 -67 0 -75 -5z"/>
<path d="M3765 4226 c-10 -10 -11 -18 -7 -55 2 -9 10 -5 28 12 26 26 51 29
104 12 15 -5 19 -3 14 10 -4 9 -12 14 -20 11 -7 -3 -14 0 -16 6 -5 14 -91 18
-103 4z"/>
<path d="M2466 4168 c-11 -6 -32 -11 -48 -10 -31 1 -36 -9 -14 -27 11 -10 22
-8 48 5 18 10 37 18 42 19 5 0 11 6 14 13 5 15 -16 15 -42 0z"/>
<path d="M1866 4096 c-30 -42 -36 -78 -24 -155 8 -50 -7 -92 -47 -128 -39 -35
-40 -54 -7 -118 10 -18 15 -52 14 -86 -5 -119 73 -202 160 -173 12 4 30 9 38
10 19 4 49 43 55 74 3 14 17 46 30 71 34 64 32 88 -13 145 -29 35 -47 48 -68
50 -78 6 -115 13 -134 27 -17 12 -19 17 -8 28 7 8 13 27 13 42 -1 26 0 27 12
10 12 -15 13 -13 7 21 -3 22 -11 49 -18 60 -17 29 -13 68 11 109 30 51 13 61
-21 13z m18 -327 c13 -20 13 -26 -5 -62 -11 -21 -22 -47 -24 -56 -2 -9 -4 -20
-6 -26 -4 -19 13 -63 31 -80 12 -11 32 -15 61 -13 50 3 64 15 44 35 -18 17 -5
57 19 61 14 3 16 -2 11 -25 -6 -27 -6 -27 9 -9 9 11 16 16 16 12 0 -5 7 -3 15
4 24 20 18 6 -11 -25 -14 -15 -23 -33 -21 -39 8 -21 -27 -57 -64 -65 -83 -19
-138 46 -125 149 3 25 -3 47 -20 77 -13 23 -24 50 -24 60 1 15 4 14 21 -7 12
-14 28 -34 35 -45 13 -17 16 -18 24 -5 7 10 5 18 -4 25 -7 6 -18 20 -25 33
-10 19 -9 22 8 22 11 0 27 -10 35 -21z m120 -13 c3 -12 19 -35 36 -53 49 -53
38 -61 -52 -38 -21 5 -29 2 -38 -15 -6 -12 -11 -33 -10 -48 3 -42 1 -49 -15
-49 -30 0 -60 106 -35 122 6 4 8 10 5 15 -3 5 2 13 11 18 9 5 15 12 15 15 -1
4 -1 17 -1 29 0 17 3 19 12 10 7 -7 8 -16 1 -24 -5 -7 -8 -19 -7 -25 1 -7 2
-19 3 -25 3 -23 41 36 41 63 0 31 26 35 34 5z"/>
<path d="M2350 4069 c-30 -11 -70 -30 -90 -44 -31 -22 -35 -23 -41 -8 -3 9 -8
12 -11 7 -3 -5 5 -42 18 -83 13 -41 21 -77 19 -81 -2 -4 2 -16 10 -26 9 -10
14 -14 13 -9 -1 6 1 20 5 31 4 12 3 41 -2 64 -8 35 -6 44 8 58 28 27 61 52 67
52 13 0 75 48 67 53 -5 3 -33 -3 -63 -14z"/>
<path d="M1899 4043 c0 -16 -2 -36 -4 -45 -2 -10 1 -20 6 -24 5 -3 9 -2 10 3
0 4 2 27 4 51 2 23 0 42 -5 42 -6 0 -10 -12 -11 -27z"/>
<path d="M2108 4034 c-8 -7 2 -36 38 -111 20 -44 34 -61 44 -58 13 4 16 -6 15
-57 -1 -35 -3 -66 -5 -70 -1 -5 -3 -11 -4 -15 -1 -5 -10 -23 -20 -41 -13 -26
-16 -48 -12 -95 12 -135 25 -152 23 -29 -1 56 2 95 9 102 8 8 11 -2 12 -37 0
-26 1 -71 3 -100 3 -70 -14 -92 -109 -141 l-79 -41 -3 -58 c-1 -32 -3 -87 -5
-123 -1 -36 -5 -73 -9 -82 -6 -13 -3 -15 14 -11 25 7 39 31 34 58 -3 11 -5 52
-6 91 -2 91 12 114 84 139 31 10 62 23 69 29 27 20 56 71 53 91 -8 57 -17 181
-19 265 -4 145 -3 140 -25 140 -12 0 -20 7 -20 17 0 14 -66 143 -74 143 -1 0
-5 -3 -8 -6z"/>
<path d="M3354 4012 c-8 -7 -12 -18 -9 -23 4 -5 -5 -10 -19 -10 -57 -3 -58 -3
-146 -39 -24 -10 -49 -15 -55 -12 -5 4 -18 8 -27 9 -10 2 -23 4 -29 5 -26 6
-18 -20 10 -32 46 -19 93 -15 152 13 29 14 56 24 61 21 4 -3 8 0 8 6 0 6 5 8
11 5 6 -4 22 3 35 16 19 18 37 23 74 24 30 0 52 5 55 13 2 6 1 12 -3 13 -61 6
-106 3 -118 -9z"/>
<path d="M2015 3983 c3 -20 10 -42 16 -50 6 -7 8 -13 4 -13 -4 0 -2 -7 5 -14
6 -8 14 -30 17 -48 5 -30 17 -47 35 -48 4 0 5 6 3 13 -3 6 -7 35 -9 63 -5 68
-39 133 -69 134 -5 0 -6 -17 -2 -37z"/>
<path d="M2999 4000 c-20 -13 171 -33 212 -23 32 9 15 15 -53 19 -35 2 -82 6
-105 7 -23 2 -47 0 -54 -3z"/>
<path d="M2760 3989 c0 -3 -11 -4 -25 -1 -23 4 -155 -50 -155 -64 0 -6 85 1
97 9 5 3 25 9 44 12 46 9 50 10 82 23 16 7 37 12 48 12 10 0 19 5 19 11 0 6
-21 9 -55 7 -30 -2 -55 -6 -55 -9z"/>
<path d="M2490 3928 c0 -66 -55 -178 -96 -197 -19 -8 -24 -15 -16 -23 7 -7 20
-3 44 15 35 27 55 60 88 145 16 43 18 56 8 72 -18 29 -28 25 -28 -12z"/>
<path d="M2099 3943 c-1 -5 0 -12 1 -18 1 -5 3 -29 5 -52 4 -43 49 -133 67
-133 7 0 8 12 3 33 -4 17 -8 41 -8 52 -2 21 -54 125 -62 125 -3 0 -6 -3 -6 -7z"/>
<path d="M2651 3891 c-1 -8 -4 -12 -7 -8 -4 3 -13 0 -21 -8 -8 -8 -19 -18 -26
-22 -14 -9 -46 -55 -66 -94 -8 -17 -28 -31 -55 -40 -22 -7 -59 -23 -80 -36
-22 -12 -43 -20 -47 -17 -10 6 -32 -34 -35 -66 -2 -14 3 -32 11 -40 13 -15 14
-57 2 -77 -3 -5 -9 -24 -12 -41 -4 -24 -2 -30 9 -26 20 8 35 76 32 150 l-3 65
36 18 c31 16 69 28 118 37 38 7 86 66 92 114 0 5 15 25 32 44 17 20 28 41 26
48 -4 10 -6 9 -6 -1z"/>
<path d="M4116 3811 c-20 -57 -35 -106 -32 -108 7 -7 25 24 44 73 14 37 16 51
6 51 -7 0 -15 -7 -18 -16z"/>
<path d="M2070 3780 c0 -11 6 -20 13 -20 16 0 40 -44 46 -82 2 -13 19 19 20
38 1 10 -65 84 -74 84 -3 0 -5 -9 -5 -20z"/>
<path d="M4213 3622 c-14 -9 -5 -26 16 -30 11 -2 12 0 3 11 -7 8 -9 17 -5 20
9 9 1 8 -14 -1z"/>
<path d="M1750 3591 c-17 -33 -11 -70 21 -127 29 -53 30 -56 12 -70 -10 -7
-23 -14 -29 -14 -6 0 -18 -14 -26 -31 -15 -30 -15 -55 -2 -112 6 -24 1 -34
-35 -67 -23 -22 -41 -48 -42 -62 -1 -13 -2 -30 -3 -38 -3 -28 24 -70 56 -86
45 -23 67 -54 68 -91 0 -45 -17 -77 -53 -98 -52 -31 -67 -50 -68 -86 -2 -60 0
-67 47 -113 36 -36 43 -49 36 -63 -6 -10 -13 -35 -16 -57 -6 -36 -3 -42 35
-77 23 -21 45 -36 50 -34 4 3 10 1 13 -4 5 -8 28 -5 99 14 44 12 57 13 57 4 0
-15 28 -40 34 -31 3 5 -2 37 -10 73 -19 79 -22 92 -23 102 -1 4 -8 7 -16 7
-10 0 -15 -10 -15 -26 0 -22 -2 -25 -15 -14 -8 7 -13 16 -10 20 6 10 -17 17
-60 19 -16 1 -33 8 -37 16 -7 11 -14 12 -36 4 -14 -6 -23 -7 -20 -3 4 4 3 15
-3 25 -8 16 -6 19 10 19 20 0 35 25 25 41 -3 6 -16 9 -27 8 -43 -3 -56 1 -77
23 -32 35 -26 61 21 86 22 12 42 22 44 22 2 0 1 -13 -1 -28 -5 -29 -1 -30 63
-23 15 1 45 56 36 65 -4 3 -13 0 -22 -8 -21 -18 -61 -30 -61 -18 0 5 14 21 30
35 17 15 30 35 30 45 -1 14 -4 12 -22 -8 -20 -24 -20 -24 -14 -3 14 45 16 72
6 97 -11 30 -8 32 14 10 15 -14 16 -14 16 1 0 23 -48 63 -92 76 -21 7 -45 20
-54 30 -36 40 16 101 78 92 14 -2 29 1 32 6 10 16 -5 41 -25 41 -10 0 -19 5
-19 10 0 6 5 10 11 10 6 0 9 7 5 15 -3 8 -4 15 -2 15 12 0 66 -23 66 -28 0 -4
19 -7 43 -7 49 1 67 -4 67 -17 0 -16 -63 -37 -82 -27 -27 14 -29 11 -26 -32 3
-51 10 -56 42 -24 14 14 31 25 38 25 7 0 3 -7 -9 -15 -12 -9 -25 -31 -29 -50
-8 -46 -16 -50 -42 -20 -15 17 -28 23 -46 19 -34 -6 -34 14 0 22 17 5 22 9 13
14 -22 14 -77 8 -94 -10 -21 -23 -4 -35 26 -19 18 9 21 9 16 -4 -7 -18 11 -37
33 -37 10 0 27 -9 39 -19 13 -11 30 -17 42 -14 11 3 18 8 15 10 -3 3 6 17 20
32 24 26 68 107 79 148 9 33 -2 45 -27 32 -12 -7 -18 -7 -14 -1 7 11 -87 27
-103 18 -5 -4 -12 -3 -15 2 -3 5 9 16 25 26 25 15 33 16 42 6 9 -10 9 -11 -3
-5 -8 5 -12 4 -7 -1 13 -14 56 -13 50 3 -3 7 -10 10 -17 6 -6 -3 -7 -2 -3 2
15 17 37 13 37 -5 0 -37 23 -31 31 8 1 4 8 27 15 52 7 25 16 61 19 80 l6 34
-24 -27 c-13 -15 -26 -24 -31 -20 -4 4 -15 8 -24 8 -9 1 -41 5 -70 9 -40 7
-50 11 -42 21 8 9 7 17 -2 26 -32 33 -50 74 -51 115 0 24 -2 44 -4 44 -1 0 -7
-9 -13 -19z m137 -234 c4 -6 -6 -8 -25 -4 -17 4 -34 2 -37 -3 -3 -5 -14 -7
-25 -5 -11 2 -22 -1 -25 -6 -4 -5 -11 -6 -17 -3 -6 4 -1 12 13 19 27 15 107
16 116 2z m61 -24 c-41 -45 -71 -52 -186 -44 -15 1 -12 22 3 23 6 1 25 5 43 9
17 4 34 3 37 -1 8 -13 47 1 78 27 37 30 56 19 25 -14z m-22 -875 c20 -14 34
-31 33 -43 0 -11 -3 -14 -6 -7 -2 6 -8 10 -13 7 -5 -3 -16 2 -25 11 -9 9 -36
18 -60 20 -89 7 -121 18 -96 33 26 16 132 3 167 -21z m-96 -35 c63 -7 71 -21
13 -19 -30 1 -59 8 -74 19 -19 15 -20 17 -4 12 11 -4 40 -9 65 -12z"/>
<path d="M4213 3560 c1 -11 4 -20 7 -20 4 0 6 -28 5 -62 -1 -35 1 -67 4 -73 3
-5 5 -23 5 -40 1 -16 5 -29 11 -28 12 4 14 123 3 178 -5 22 -9 46 -10 53 -2
21 -27 13 -25 -8z"/>
<path d="M1750 3441 c0 -5 -7 -17 -16 -25 -8 -9 -11 -16 -6 -16 16 0 44 38 33
45 -6 3 -11 2 -11 -4z"/>
<path d="M4206 3287 c1 -23 3 -43 4 -44 1 -2 3 -6 5 -10 1 -5 4 -15 8 -23 16
-40 36 -123 31 -131 -3 -5 -1 -9 4 -9 18 0 11 80 -14 162 -29 97 -41 114 -38
55z"/>
<path d="M4030 3210 c0 -5 4 -10 8 -10 4 0 8 -9 9 -20 1 -12 12 -37 25 -58 12
-20 23 -41 24 -47 0 -5 2 -16 2 -23 1 -7 7 -10 12 -7 19 12 10 51 -27 113 -34
58 -53 76 -53 52z"/>
<path d="M2298 3179 c-12 -9 -51 -27 -85 -40 -58 -22 -80 -39 -50 -39 28 0
121 30 128 41 4 7 14 9 23 6 9 -4 16 -3 16 2 0 5 42 9 93 10 50 0 100 2 109 4
20 4 36 17 22 18 -5 0 -45 2 -89 4 -44 3 -94 6 -112 8 -18 2 -41 -4 -55 -14z"/>
<path d="M4197 3164 c-3 -3 -2 -16 3 -28 4 -12 6 -53 3 -92 -6 -75 -7 -218 -2
-329 1 -38 0 -83 -4 -99 -6 -28 -6 -28 13 -11 22 20 26 30 9 19 -6 -3 -4 4 4
17 10 16 13 42 10 79 -2 30 -5 71 -6 90 -1 19 -6 38 -11 42 -6 4 -4 36 4 80
18 90 18 200 2 206 -7 2 -10 8 -7 12 6 10 -10 22 -18 14z"/>
<path d="M2550 3140 c-24 -18 -37 -19 -153 -7 -21 2 -40 0 -43 -4 -2 -4 -15
-6 -29 -4 -14 1 -25 -2 -25 -6 0 -9 21 -15 85 -24 21 -3 42 -9 45 -14 3 -4 12
-8 20 -9 8 0 33 -5 55 -11 22 -5 74 -12 116 -14 42 -3 85 -10 95 -15 11 -5 40
-20 66 -33 26 -13 50 -21 53 -18 7 7 -60 79 -74 79 -5 0 -12 8 -15 18 -5 15
-76 63 -101 68 -61 11 -74 10 -95 -6z m130 -56 c6 -6 3 -10 -10 -10 -11 0 -20
3 -20 6 0 3 -22 5 -50 4 -29 -1 -50 2 -50 8 0 13 116 6 130 -8z"/>
<path d="M4291 3123 c0 -50 -5 -80 -22 -123 -8 -19 -13 -46 -12 -60 2 -29 3
-60 3 -110 0 -19 4 -44 9 -55 16 -35 29 -103 25 -134 -2 -20 1 -31 9 -31 18 0
12 141 -7 195 -17 46 -13 144 7 196 11 29 13 57 8 142 -2 34 -20 16 -20 -20z"/>
<path d="M2187 3074 c-1 -1 -29 -5 -62 -8 -33 -3 -71 -8 -85 -11 -14 -4 -35
-7 -46 -9 -25 -3 -50 -26 -83 -74 -18 -26 -22 -43 -20 -94 3 -67 8 -77 78
-144 l43 -42 4 -108 c3 -127 11 -174 26 -174 25 0 140 -64 154 -85 16 -24 26
-94 16 -110 -4 -5 -8 -16 -9 -22 -2 -7 -5 -21 -7 -30 -2 -10 3 -28 10 -40 9
-14 10 -23 4 -23 -19 0 -28 44 -24 119 3 41 1 72 -3 68 -4 -4 -8 -15 -10 -25
-3 -18 -13 -99 -15 -119 -1 -7 6 -27 14 -45 9 -18 21 -44 28 -58 6 -15 9 -49
6 -80 -3 -30 -2 -61 3 -69 15 -24 24 26 26 144 2 104 9 192 21 243 9 44 -23
89 -85 118 -105 49 -118 57 -119 73 -2 20 -3 148 -1 176 3 42 -2 53 -26 59
-14 4 -25 11 -25 17 0 6 5 7 11 4 5 -4 22 -8 37 -10 151 -20 231 -24 257 -14
24 9 24 9 -45 14 -98 6 -184 15 -205 21 -44 12 -83 35 -91 51 -14 33 -12 176
3 200 19 29 82 51 156 55 20 2 37 5 37 8 0 3 16 4 35 2 22 -3 35 0 35 7 0 7 4
9 10 6 18 -11 90 -11 90 0 0 8 -135 16 -143 9z"/>
<path d="M2344 3069 c-7 -12 56 -16 66 -4 7 9 0 12 -26 11 -20 -1 -38 -4 -40
-7z"/>
<path d="M2013 2990 c-18 -11 -34 -28 -34 -37 -8 -115 -4 -136 26 -165 33 -30
41 -33 50 -18 3 6 0 10 -7 10 -39 0 -61 130 -31 181 9 15 20 26 25 23 4 -3 8
2 8 10 0 20 2 20 -37 -4z"/>
<path d="M3419 2973 c-13 -15 -17 -168 -6 -180 3 -3 34 -6 69 -7 96 -2 192 35
218 85 13 24 -15 68 -43 69 -10 0 -16 4 -13 8 7 12 -82 33 -154 37 -43 2 -63
-1 -71 -12z m73 -62 c-1 -24 3 -50 9 -57 9 -11 9 -18 0 -28 -10 -12 -20 -13
-51 -6 -3 0 3 7 13 14 16 12 16 14 1 20 -11 4 -14 13 -11 27 3 12 2 31 -3 44
-10 27 -7 33 23 31 20 -1 22 -6 19 -45z m133 13 c14 -9 25 -12 25 -8 0 5 4 3
9 -5 21 -33 -8 -65 -67 -76 -26 -4 -34 -1 -48 19 -10 16 -13 33 -8 48 12 41
47 50 89 22z"/>
<path d="M3470 2935 c-7 -9 -10 -18 -7 -21 3 -3 10 4 17 15 13 25 8 27 -10 6z"/>
<path d="M2307 2970 c-38 -11 -77 -55 -77 -86 0 -28 52 -84 78 -84 9 0 27 -3
40 -6 12 -4 22 -2 22 4 0 5 -12 12 -28 15 -40 8 -82 45 -82 72 0 27 42 64 82
72 16 3 28 9 28 14 0 11 -25 10 -63 -1z"/>
<path d="M2940 2977 c-3 -3 -30 -7 -60 -10 -75 -8 -93 -36 -81 -129 2 -12 61
-39 71 -33 18 11 10 21 -25 34 -30 10 -34 15 -25 31 7 13 7 21 0 25 -25 15 58
60 91 50 11 -4 19 -2 19 4 0 10 66 8 130 -3 14 -2 28 -5 31 -5 8 -1 5 -68 -4
-77 -4 -4 -7 -12 -7 -17 0 -6 3 -7 7 -4 3 4 12 2 20 -4 14 -12 14 -11 17 36 2
26 -11 82 -21 94 -4 6 -158 13 -163 8z"/>
<path d="M2365 2938 c-58 -19 -87 -42 -79 -63 9 -22 93 -53 169 -61 28 -3 52
-7 55 -7 3 -1 16 6 29 15 32 22 38 87 11 118 -15 17 -28 21 -72 19 -30 -1 -80
-11 -113 -21z m166 -23 c6 -53 2 -70 -16 -69 -53 2 -57 4 -51 20 4 9 1 23 -5
30 -9 11 -6 16 12 23 31 11 59 10 60 -4z m-101 -30 c0 -15 -18 -23 -45 -19
-64 9 -73 19 -36 39 28 15 81 2 81 -20z"/>
<path d="M4160 2930 c-8 -5 -32 -17 -53 -26 l-38 -17 27 -18 c15 -10 31 -16
35 -13 4 2 10 0 14 -6 3 -5 15 -10 27 -10 17 0 18 3 9 14 -8 9 -10 29 -7 50 3
20 5 36 3 35 -1 0 -9 -4 -17 -9z"/>
<path d="M2894 2890 c-16 -6 -16 -7 -1 -13 10 -4 17 -2 17 5 0 7 4 7 13 0 14
-12 35 -11 55 1 6 5 12 4 12 -1 0 -5 11 -7 25 -4 14 2 23 7 20 10 -7 8 -120 9
-141 2z"/>
<path d="M3086 2833 c-10 -10 -33 -14 -98 -17 -32 -2 -58 0 -58 3 0 4 -9 7
-20 7 -24 0 -36 -26 -12 -27 162 -12 245 -1 209 29 -7 6 -17 9 -21 5z"/>
<path d="M2783 2769 c-18 -11 -38 -22 -45 -23 -7 -1 -17 -4 -23 -8 -12 -7 -82
-16 -155 -20 -30 -1 -66 -8 -80 -15 -21 -11 -25 -11 -28 2 -3 11 -14 15 -38
13 -19 -1 -34 -5 -34 -10 0 -4 12 -6 27 -5 14 1 28 -4 30 -10 4 -12 -20 -17
-64 -16 -7 1 -13 -3 -13 -8 0 -6 -9 -5 -20 1 -13 7 -20 7 -20 1 0 -6 -7 -8
-15 -5 -9 4 -15 0 -15 -9 0 -11 10 -14 40 -12 22 1 43 -1 45 -6 3 -4 15 -5 28
-2 41 10 137 12 143 2 11 -18 -16 -38 -39 -30 -12 4 -53 7 -92 5 -68 -2 -134
10 -145 27 -3 5 -17 11 -30 13 -14 2 -25 5 -25 6 0 8 -55 8 -60 0 -3 -5 -1
-10 5 -10 12 0 36 -10 130 -53 30 -14 59 -20 90 -17 25 2 70 4 100 5 79 3 80
4 74 19 -4 10 3 14 23 13 40 0 82 10 99 24 8 6 14 9 14 5 0 -8 63 48 98 86 14
15 34 30 45 34 16 5 17 8 6 15 -19 12 -19 12 -56 -12z m-108 -82 c-23 -13
-144 -23 -132 -11 4 5 30 9 57 10 27 1 57 7 67 12 10 6 20 8 23 5 3 -2 -4 -10
-15 -16z"/>
<path d="M1870 2750 c0 -32 19 -80 32 -80 4 0 8 -5 8 -11 0 -7 -8 -6 -22 4
-13 8 -22 20 -20 26 1 6 -4 11 -12 11 -15 0 -26 -30 -26 -74 0 -23 3 -27 12
-18 7 7 26 12 43 12 32 0 75 -23 64 -35 -6 -6 -74 -15 -112 -16 -10 0 -16 -6
-14 -12 5 -16 75 -17 114 -1 17 7 34 10 37 6 25 -24 -25 106 -58 153 -19 27
-33 52 -30 57 3 4 0 8 -5 8 -6 0 -11 -13 -11 -30z"/>
<path d="M1700 2717 c1 -37 63 -64 95 -41 10 8 17 14 14 15 -39 6 -57 12 -81
23 -20 11 -28 11 -28 3z"/>
<path d="M4100 2720 c0 -5 0 -12 0 -15 0 -5 -37 -83 -61 -127 -7 -13 -5 -18 5
-18 7 0 19 14 26 30 7 17 16 30 21 30 9 0 29 64 29 93 0 9 -4 17 -10 17 -5 0
-10 -4 -10 -10z"/>
<path d="M2343 2713 c-20 -7 -15 -19 7 -19 11 0 20 6 20 13 0 14 -6 15 -27 6z"/>
<path d="M4241 2436 c-6 -7 -11 -24 -11 -37 0 -34 -6 -134 -14 -201 -4 -34 -2
-58 3 -58 6 0 10 8 10 18 0 9 5 37 12 62 9 35 21 230 13 230 -1 0 -7 -6 -13
-14z"/>
<path d="M1726 2371 c-4 -5 0 -13 7 -18 8 -4 16 -15 19 -23 2 -7 7 -10 10 -4
3 5 -2 19 -12 32 -10 12 -21 18 -24 13z"/>
<path d="M1783 2327 c-41 -62 -45 -78 -38 -133 8 -67 26 -72 22 -6 -3 47 7 80
31 95 7 5 10 12 7 18 -4 5 -2 9 3 9 16 0 22 28 9 39 -9 7 -18 1 -34 -22z"/>
<path d="M2314 2335 c3 -13 8 -30 12 -37 10 -15 13 -119 4 -113 -3 2 -11 1
-17 -3 -9 -6 -8 -16 3 -38 14 -30 63 -57 166 -94 28 -10 43 -25 58 -54 22 -46
64 -96 80 -96 5 0 10 -4 10 -10 0 -5 7 -10 15 -10 22 0 18 16 -6 34 -12 8 -32
41 -45 73 -29 70 -50 87 -132 108 -92 23 -102 36 -106 131 -3 76 -19 134 -38
134 -5 0 -6 -11 -4 -25z"/>
<path d="M1868 2316 c-46 -31 -65 -72 -63 -136 1 -36 -5 -72 -19 -105 -12 -27
-20 -57 -20 -65 1 -8 2 -20 3 -26 0 -6 12 -17 25 -24 32 -17 55 -65 50 -104
-15 -108 -12 -135 17 -176 24 -33 32 -38 43 -28 9 8 11 17 5 22 -11 12 -12 29
-1 22 10 -6 9 91 -1 101 -8 7 -10 -14 -7 -63 1 -18 -3 -35 -8 -38 -13 -8 -28
33 -26 69 3 45 3 47 14 40 6 -3 10 0 11 7 1 7 2 24 3 38 0 14 5 30 9 37 4 6 2
15 -4 19 -7 4 -9 3 -6 -3 4 -6 0 -13 -8 -17 -11 -4 -15 1 -15 18 0 14 -5 26
-11 28 -21 7 38 37 83 43 40 5 79 25 49 25 -9 0 -12 9 -8 29 3 15 1 33 -6 40
-17 17 -26 13 -22 -9 6 -29 -29 -26 -48 4 -28 41 -31 74 -12 117 26 57 50 52
50 -10 0 -65 13 -78 62 -63 50 15 74 -1 43 -30 -33 -31 -51 -64 -44 -82 10
-25 19 -20 63 35 48 60 52 95 17 142 -13 18 -27 49 -30 71 -8 44 -28 68 -71
84 -44 16 -82 12 -117 -12z m110 -30 c12 -4 29 -20 37 -35 12 -24 12 -30 -2
-43 -12 -13 -13 -20 -3 -37 16 -30 9 -45 -13 -29 -10 8 -20 28 -22 46 -4 33
-28 66 -39 55 -3 -4 -6 0 -6 7 0 9 -6 8 -20 -5 -11 -10 -20 -14 -20 -9 -1 5
-11 -11 -24 -36 -16 -30 -21 -50 -15 -61 4 -9 5 -19 1 -23 -3 -4 -2 -10 3 -14
23 -16 42 -77 32 -99 -12 -28 -32 -36 -47 -17 -9 10 -9 14 -1 14 6 0 11 5 11
11 0 7 8 18 18 25 16 12 16 13 -2 20 -12 5 -21 2 -27 -8 -4 -8 -17 -26 -28
-39 l-20 -24 -1 22 c0 12 11 38 25 58 20 30 23 45 19 84 -6 55 4 86 40 122 26
27 54 31 104 15z"/>
<path d="M2266 2122 c-8 -13 0 -66 14 -92 11 -21 33 -49 57 -75 7 -7 14 -25
17 -39 6 -32 44 -88 56 -81 4 3 15 -15 23 -40 9 -25 14 -45 11 -45 -3 0 -25
11 -49 25 -24 13 -47 20 -50 16 -2 -5 16 -18 40 -30 25 -12 49 -29 52 -38 4
-9 14 -24 22 -33 9 -9 38 -40 64 -68 27 -29 65 -60 85 -69 21 -9 39 -20 42
-23 10 -13 54 -19 72 -9 14 8 95 19 156 22 6 0 12 7 12 15 0 11 -10 13 -45 10
-44 -5 -160 27 -192 53 -13 12 -6 42 8 33 40 -24 193 -20 224 6 10 8 20 8 37
-3 13 -7 42 -13 66 -12 23 0 42 -3 42 -7 0 -10 -2 -10 -67 -12 -29 -1 -49 3
-46 8 4 5 1 6 -5 2 -7 -4 -33 -10 -59 -13 -62 -7 -90 -22 -48 -24 104 -6 250
8 286 27 48 26 92 32 161 22 24 -4 41 -1 48 7 8 10 -5 14 -60 19 -38 4 -75 4
-82 0 -13 -8 -216 -6 -230 2 -5 3 -33 8 -61 11 -55 5 -58 5 -97 0 -27 -4 -91
18 -101 34 -3 6 -9 10 -13 9 -15 -4 -66 23 -66 36 0 20 6 18 57 -17 35 -24 56
-31 93 -31 27 0 53 3 59 6 22 14 10 22 -26 21 -49 -3 -94 10 -121 35 -11 11
-28 20 -37 20 -9 0 -26 7 -40 16 -22 14 -24 14 -33 -3 -20 -38 8 -131 53 -179
21 -23 95 -64 114 -64 28 0 35 -17 11 -25 -21 -7 -150 50 -150 66 0 5 -7 9
-16 9 -8 0 -13 4 -10 9 3 5 -1 11 -8 14 -30 12 -49 57 -47 110 1 28 5 54 10
57 26 17 29 45 10 95 -44 113 -68 141 -154 174 -33 13 -65 30 -72 38 -6 8 -14
10 -17 5z m98 -64 c-2 -4 5 -9 16 -13 45 -14 97 -101 110 -182 8 -52 -11 -59
-35 -14 -8 16 -18 31 -23 33 -5 1 -33 38 -63 82 -29 43 -60 81 -67 84 -10 3
-10 7 -2 12 14 9 70 7 64 -2z m315 -383 c2 -12 -1 -16 -12 -12 -8 3 -20 0 -26
-6 -16 -16 -40 11 -44 49 l-4 31 41 -22 c23 -12 43 -30 45 -40z"/>
<path d="M2129 2087 c-1 -4 -2 -11 -3 -17 -1 -9 -13 -25 -55 -74 -15 -18 -15
-18 9 -11 32 10 70 54 67 77 -3 18 -16 36 -18 25z"/>
<path d="M4086 2072 c-5 -8 -3 -25 7 -75 3 -16 39 -57 51 -57 6 0 5 5 -2 12
-7 7 -12 18 -12 25 0 8 -7 30 -17 51 -9 20 -15 40 -15 45 3 10 -6 9 -12 -1z"/>
<path d="M3970 2050 c0 -11 4 -20 9 -20 5 0 7 9 4 20 -3 11 -7 20 -9 20 -2 0
-4 -9 -4 -20z"/>
<path d="M2160 2029 c0 -7 -12 -28 -26 -46 -19 -26 -27 -49 -29 -88 -1 -29 -6
-58 -9 -64 -4 -6 -4 -11 0 -11 19 0 79 113 70 135 -3 8 -1 17 4 20 13 8 13 52
0 60 -5 3 -10 1 -10 -6z"/>
<path d="M2274 1975 c2 -11 -2 -27 -9 -35 -11 -13 -40 -101 -50 -150 -2 -8 -5
-21 -7 -29 -1 -7 3 -16 11 -19 10 -3 12 0 8 12 -8 20 7 21 24 0 25 -31 169
-87 169 -65 0 6 -95 68 -137 90 -17 8 -21 17 -17 38 3 16 6 49 7 76 1 26 4 47
8 47 3 0 12 -18 19 -40 16 -47 40 -74 40 -43 0 10 -7 28 -15 39 -8 10 -15 26
-15 34 0 8 -9 26 -20 40 -16 22 -19 22 -16 5z"/>
<path d="M2073 1953 c-3 -10 -19 -53 -35 -96 -30 -80 -31 -111 -3 -101 24 9
44 67 51 145 6 66 0 89 -13 52z"/>
<path d="M1929 1951 c-31 -5 -35 -8 -23 -19 8 -7 14 -10 14 -7 0 3 9 1 19 -5
18 -9 20 -20 17 -118 -1 -59 -5 -113 -9 -118 -13 -21 15 -86 54 -125 34 -34
44 -38 72 -34 54 9 70 16 101 45 34 32 51 30 54 -7 1 -14 16 -39 32 -55 17
-15 30 -35 30 -43 0 -8 12 -34 27 -59 38 -63 107 -100 188 -100 92 1 124 6
118 21 -6 15 18 18 33 3 5 -5 25 -11 44 -14 19 -3 51 -10 70 -16 52 -17 100
-23 100 -12 0 8 -56 31 -90 35 -8 2 -19 5 -25 9 -5 3 -35 9 -65 13 -30 4 -58
9 -62 11 -3 2 -8 0 -10 -6 -3 -11 -150 -17 -188 -8 -42 10 -58 19 -64 33 -7
19 10 28 52 27 25 -1 32 2 25 9 -6 6 -29 12 -52 13 -46 2 -54 7 -56 39 -1 13
-15 31 -35 44 -18 13 -38 33 -45 45 -31 59 -40 68 -73 68 -18 0 -44 7 -57 16
-23 15 -27 15 -50 0 -14 -9 -25 -14 -25 -10 0 4 -6 1 -13 -5 -10 -8 -18 -7
-32 3 -26 19 -34 190 -10 235 9 18 13 36 10 41 -3 6 -1 10 4 10 6 0 11 11 11
25 0 27 -13 29 -91 16z m221 -354 c0 -10 -44 -34 -70 -38 -3 0 -10 -5 -16 -10
-7 -6 -17 -2 -28 10 -16 17 -16 19 6 26 13 4 32 9 42 11 11 3 22 7 25 9 10 10
41 4 41 -8z"/>
<path d="M2143 1838 c-41 -83 -46 -98 -28 -98 7 0 17 9 20 20 3 11 11 20 16
20 5 0 9 6 9 13 0 8 8 29 17 48 22 43 24 59 10 59 -7 0 -26 -28 -44 -62z"/>
<path d="M3094 1864 c-22 -8 -41 -21 -41 -28 0 -15 15 -14 56 1 27 11 71 5 71
-8 0 -5 3 -8 8 -7 4 1 21 -4 37 -11 36 -16 138 -24 130 -11 -5 9 -65 29 -109
37 -11 2 -27 10 -35 17 -25 21 -72 25 -117 10z"/>
<path d="M2283 1846 c4 -10 7 -22 7 -27 0 -6 5 -7 10 -4 6 3 10 1 10 -4 0 -6
7 -11 15 -11 8 0 15 5 15 10 0 6 -4 10 -8 10 -5 0 -19 10 -32 22 -20 18 -23
19 -17 4z"/>
<path d="M2585 1850 c-3 -5 16 -19 42 -32 26 -12 50 -24 53 -28 3 -3 23 -6 45
-7 22 -1 40 -2 40 -3 0 -1 27 -4 60 -5 33 -2 52 -1 43 2 -10 2 -18 8 -18 12 0
3 -12 8 -26 9 -15 1 -32 6 -38 11 -6 5 -31 12 -56 16 -24 4 -49 10 -55 13 -5
3 -20 6 -32 7 -12 0 -25 3 -29 8 -10 10 -22 9 -29 -3z"/>
<path d="M3747 1775 c1 -50 -9 -73 -20 -42 -8 23 -16 1 -20 -56 -3 -36 -14
-72 -30 -100 -15 -25 -23 -47 -20 -51 3 -3 0 -6 -7 -6 -7 0 -11 -3 -7 -6 6 -6
-16 -57 -35 -78 -5 -6 -18 -26 -29 -44 -22 -38 -58 -55 -115 -55 -45 0 -80 19
-79 43 1 26 -11 65 -20 63 -12 -3 -15 -32 -4 -39 5 -3 9 -14 9 -25 0 -16 -4
-18 -17 -11 -10 6 -27 6 -45 0 -27 -10 -65 -8 -118 6 -34 9 -231 13 -236 5 -7
-13 31 -21 115 -25 46 -2 95 -7 110 -10 42 -9 111 -11 116 -3 7 10 66 -5 96
-23 30 -19 129 -17 153 3 35 29 66 64 66 74 0 6 11 22 25 37 14 15 25 34 25
43 0 9 12 31 26 50 14 18 30 51 36 72 7 21 12 40 13 43 1 3 4 12 7 20 16 42
24 78 22 110 -3 58 -4 60 -12 60 -4 0 -7 -25 -5 -55z"/>
<path d="M3076 1791 c-3 -4 -19 -8 -38 -9 -30 -2 -65 -21 -42 -23 5 0 18 -2
28 -4 11 -2 25 -1 30 3 15 9 82 18 154 21 6 1 12 4 12 9 0 9 -138 13 -144 3z"/>
<path d="M3710 1770 c0 -11 4 -20 8 -20 4 0 8 9 8 20 0 11 -4 20 -8 20 -4 0
-8 -9 -8 -20z"/>
<path d="M2820 1738 c0 -14 30 -19 125 -22 22 0 43 -5 47 -11 5 -6 8 -6 8 2 0
13 16 12 45 -3 11 -6 36 -10 55 -8 19 1 50 4 68 5 18 1 35 6 38 11 3 4 11 5
17 1 7 -4 7 -1 -1 9 -8 9 -19 15 -25 13 -25 -9 -138 -11 -143 -3 -3 5 -20 8
-37 8 -18 0 -69 2 -114 6 -68 5 -83 4 -83 -8z"/>
<path d="M3455 1704 c-8 -13 -19 -23 -23 -22 -4 0 -16 -2 -27 -6 -11 -5 -25
-9 -32 -11 -6 -2 -9 -13 -6 -24 3 -12 1 -21 -6 -21 -6 0 -11 -17 -11 -39 0
-31 -7 -46 -31 -70 -17 -17 -37 -31 -46 -31 -8 0 -29 -12 -46 -26 -33 -28 -35
-28 -169 -8 -27 4 -38 2 -38 -7 0 -7 3 -9 7 -6 3 4 12 2 19 -4 7 -5 23 -11 36
-13 13 -1 43 -8 67 -15 37 -10 49 -10 84 4 34 14 38 14 28 2 -7 -9 -8 -18 -2
-21 8 -5 49 35 68 68 13 23 49 28 67 11 9 -9 16 -21 16 -27 0 -6 12 -21 27
-33 26 -23 43 -23 73 -1 10 8 9 2 -4 -18 -17 -26 -17 -28 -1 -23 9 4 22 7 27
7 6 0 9 3 6 6 -3 3 5 17 18 31 13 14 24 30 24 35 0 5 11 24 25 42 14 18 25 39
25 47 0 11 -2 11 -10 -1 -8 -12 -10 -11 -10 6 0 11 5 25 11 31 7 7 13 30 15
52 2 34 -1 41 -16 41 -10 0 -27 14 -37 30 -9 17 -22 30 -28 31 -77 7 -85 5
-100 -17z m100 -34 c5 -8 -25 -71 -45 -95 -7 -8 -9 -15 -5 -15 4 0 1 -7 -6
-16 -7 -9 -14 -22 -15 -29 -1 -7 -5 -22 -9 -34 -10 -33 7 -25 35 17 54 81 71
117 68 143 -4 26 -3 26 19 12 24 -16 28 -25 16 -37 -4 -3 -8 -16 -10 -28 -2
-12 -12 -32 -23 -43 -26 -27 -26 -39 0 -25 11 6 20 9 20 7 0 -9 -106 -112
-117 -113 -7 -1 -18 16 -24 38 -9 35 -7 49 15 110 29 76 31 88 16 88 -18 0
-62 -82 -64 -121 -3 -50 -10 -56 -37 -30 -13 12 -27 21 -33 21 -5 0 -2 6 9 14
12 8 16 20 12 35 -6 23 15 51 39 51 8 0 14 5 14 10 0 6 5 10 10 10 10 0 25 10
52 36 12 11 55 7 63 -6z"/>
<path d="M2032 1687 c2 -16 8 -21 23 -17 48 11 114 3 152 -18 26 -14 73 -59
73 -70 0 -12 47 -62 59 -62 6 0 11 -7 11 -15 0 -19 61 -57 120 -75 25 -7 51
-18 58 -23 6 -5 12 -6 12 -1 0 5 4 4 8 -3 4 -6 19 -14 32 -17 14 -3 35 -7 48
-10 55 -14 70 -17 112 -20 45 -4 85 8 75 23 -2 5 13 20 35 35 48 32 51 26 8
-14 l-33 -29 33 9 c19 5 40 14 46 19 7 6 15 8 18 5 3 -2 19 16 34 41 16 25 32
45 36 45 3 0 4 9 1 20 -5 17 0 20 33 21 22 1 53 3 69 5 17 2 55 4 85 5 92 2
116 37 31 46 -20 2 -46 5 -57 8 -12 2 -34 -3 -48 -10 -14 -8 -26 -11 -26 -9 0
3 -16 -4 -35 -16 -19 -12 -35 -18 -35 -15 0 4 -6 2 -14 -4 -7 -6 -21 -9 -30
-5 -9 3 -16 1 -16 -5 0 -6 4 -11 10 -11 25 0 -7 -31 -48 -46 -26 -9 -69 -25
-97 -35 -29 -10 -56 -14 -65 -9 -8 4 -24 4 -35 0 -19 -7 -18 -8 6 -14 14 -4
33 -8 42 -10 10 -1 17 -6 17 -12 -1 -16 -53 -6 -158 30 -57 20 -107 34 -112
31 -5 -3 -11 -1 -15 5 -4 6 -10 8 -14 6 -4 -3 -17 3 -28 13 -11 11 -35 27 -54
36 -38 20 -79 54 -79 67 0 15 -54 78 -67 78 -7 0 -13 5 -13 10 0 6 -3 9 -7 8
-5 -1 -19 4 -33 12 -14 7 -58 14 -98 16 -70 2 -73 1 -70 -19z"/>
<path d="M2300 1665 c0 -7 64 -81 77 -89 8 -4 29 -10 46 -13 18 -3 37 -9 42
-13 15 -12 132 -24 120 -12 -13 13 -145 57 -167 56 -10 -1 -18 4 -18 11 0 14
25 13 78 -3 34 -11 47 3 15 15 -10 4 -20 10 -23 14 -13 19 -57 19 -79 0 -26
-23 -41 -20 -41 8 0 12 -9 20 -25 23 -14 3 -25 4 -25 3z"/>
<path d="M3752 1583 c-2 -31 21 -51 57 -49 36 2 101 26 101 37 0 11 -2 11 -58
0 -38 -7 -47 -6 -71 14 l-27 23 -2 -25z"/>
<path d="M1980 1516 c0 -9 49 -56 70 -67 37 -20 119 -22 147 -4 34 23 19 36
-20 17 -38 -19 -67 -23 -67 -9 0 6 -3 8 -6 4 -8 -8 -84 30 -84 42 0 5 -9 11
-20 14 -11 3 -20 4 -20 3z"/>
<path d="M2467 1508 c-9 -6 -9 -8 1 -9 15 -2 31 -6 35 -9 1 -1 18 -3 37 -5 19
-2 60 -5 90 -8 68 -7 100 7 43 18 -21 5 -45 10 -53 12 -30 8 -141 9 -153 1z"/>
<path d="M3748 1497 c2 -12 9 -27 13 -33 28 -36 9 -145 -33 -187 -26 -26 -73
-49 -82 -39 -7 7 -22 10 -84 16 -37 3 -48 0 -73 -25 -16 -15 -29 -39 -29 -51
l1 -23 17 21 c9 12 22 29 27 38 10 17 65 30 65 17 0 -17 141 -16 151 0 5 8 9
10 9 4 0 -5 15 12 33 40 27 41 32 59 33 110 1 37 -5 72 -15 92 -19 39 -41 52
-33 20z"/>
<path d="M1857 1474 c-3 -6 -4 -19 -2 -30 2 -10 4 -22 4 -26 1 -4 8 -13 16
-21 19 -19 76 -12 90 11 13 24 17 54 5 47 -5 -3 -10 -12 -10 -18 0 -7 -11 -17
-25 -23 -31 -15 -52 -1 -63 41 -5 16 -11 25 -15 19z"/>
<path d="M2958 1418 c14 -17 106 -22 95 -5 -3 4 -22 7 -42 6 -20 -2 -43 1 -51
6 -13 7 -13 6 -2 -7z"/>
<path d="M2820 1338 c0 -10 15 -16 50 -20 14 -2 30 -7 36 -10 20 -13 73 -18
79 -8 4 6 3 10 -2 8 -4 -1 -26 7 -48 17 -43 19 -115 28 -115 13z"/>
<path d="M3295 1320 c-3 -6 -11 -8 -16 -5 -5 4 -15 3 -21 -1 -7 -5 -37 -8 -67
-7 -59 1 -116 -18 -144 -48 -10 -10 -14 -19 -10 -19 4 0 1 -4 -7 -10 -8 -5
-12 -11 -9 -15 3 -3 18 4 32 15 31 25 106 52 124 46 7 -3 12 0 10 6 -3 14 42
18 74 6 23 -9 23 -10 4 -20 -11 -6 -24 -17 -28 -25 -11 -18 -56 -37 -80 -34
-10 1 -26 -4 -35 -12 -22 -19 -89 -40 -106 -34 -7 3 -19 1 -27 -4 -11 -7 -11
-9 4 -9 9 0 17 -4 17 -9 0 -17 -25 -19 -42 -4 -9 8 -31 17 -50 19 -32 4 -32 4
-13 -11 11 -9 30 -18 43 -22 12 -3 22 -9 22 -13 0 -14 93 -6 98 8 2 8 -3 10
-15 6 -15 -5 -15 -4 -3 5 8 5 37 15 65 22 27 6 80 29 116 50 68 41 102 47 132
25 21 -16 21 -34 2 -84 -18 -43 -54 -67 -105 -71 -44 -3 -72 18 -72 53 0 26
-1 27 -15 6 -19 -27 -11 -45 28 -69 68 -41 171 8 200 97 6 18 8 36 5 39 -3 3
1 21 10 41 16 40 11 53 -12 30 -12 -12 -24 -14 -52 -6 -21 5 -43 10 -50 11 -7
2 -18 9 -25 16 -10 11 -1 12 46 9 58 -5 82 4 49 17 -33 13 -70 16 -77 5z"/>
<path d="M3051 1306 c-7 -9 -18 -16 -23 -16 -5 0 -16 -7 -24 -15 -14 -13 -64
-21 -103 -16 -7 2 -10 -2 -7 -8 13 -20 -32 -16 -102 11 -40 15 -78 28 -84 28
-23 0 15 -29 74 -55 62 -28 109 -34 158 -21 14 4 31 8 38 10 20 4 94 76 90 88
-2 6 -10 3 -17 -6z"/>
<path d="M3076 1059 c12 -20 72 -39 120 -39 41 0 55 10 21 16 -69 11 -82 14
-85 23 -2 6 -17 11 -33 11 -20 0 -28 -4 -23 -11z"/>
</g>
</svg>
